<svg xmlns="http://www.w3.org/2000/svg" version="1.1" xmlns:xlink="http://www.w3.org/1999/xlink" xmlns:svgjs="http://svgjs.dev/svgjs" width="100%" height="100%" viewBox="0 0 1000 600"><rect width="1000" height="600" x="0" y="0" fill="#141a46"/><g><circle r="166.66666666666666" cx="515.2325236002604" cy="537.4548434033865" fill="#ec8b5e" transform="matrix(0.3586121848529077,0,0,0.3586121848529077,0,107.26213506064923)"/><path d="M455.35158552707657 612.4548622078987L438.83372888430375 612.4548622078987L507.4051553797066 462.4548667492049L523.0599168105148 462.4548667492049L591.6313433059177 612.4548622078987L574.9051533361189 612.4548622078987L511.92896476655613 471.681056946069L518.3575360005002 471.681056946069L455.35158552707657 612.4548622078987ZM562.4944394261436 572.395339611192L465.8575375899573 572.395339611192L470.55991839997193 559.5381971433039L557.7622967122682 559.5381971433039L562.4944394261436 572.395339611192Z " fill="#2f3c7e" transform="matrix(0.3586121848529077,0,0,0.3586121848529077,0,107.26213506064923)"/><path d="M777.5860038441734 581.359743036408L765.2325402250829 581.359743036408L816.516108114064 469.17693827926183L828.2240754359407 469.17693827926183L879.5076433249218 581.359743036408L866.9983702547796 581.359743036408L819.8993990511842 476.0770711115467L824.7072335407762 476.0770711115467L777.5860038441734 581.359743036408ZM857.7165786707063 551.3998114484875L785.443251875775 551.3998114484875L788.9600937709396 541.7841424693036L854.1774782825344 541.7841424693036L857.7165786707063 551.3998114484875ZM930.4795923117996 582.1610487846733L930.4795923117996 582.1610487846733Q919.7287401892398 582.1610487846733 911.7156827065864 578.1545200433466Q903.7026252239332 574.14799130202 899.2954436084739 566.1349338193667Q894.8882619930146 558.1218763367133 894.8882619930146 546.1022901127335L894.8882619930146 546.1022901127335L894.8882619930146 497.2226394685484L906.2623519197808 497.2226394685484L906.2623519197808 544.811297518306Q906.2623519197808 558.277685787765 912.9176413289845 565.0887846480202Q919.5729307381882 571.8998835082755 931.5925169621681 571.8998835082755L931.5925169621681 571.8998835082755Q940.4068801930867 571.8998835082755 946.9063601512388 568.2940076410816Q953.3835816163836 564.6881317738876 956.833648032526 557.8102574346102Q960.2837144486683 550.9101246023254 960.2837144486683 541.2944556231414L960.2837144486683 541.2944556231414L960.2837144486683 497.2226394685484L971.6578043754346 497.2226394685484L971.6578043754346 581.359743036408L960.7511428018231 581.359743036408L960.7511428018231 558.277685787765L962.5318222424128 562.4400239801432Q958.5252935010861 571.744074057224 950.1115831443002 576.9525614209485Q941.6978727875143 582.1610487846733 930.4795923117996 582.1610487846733ZM1029.997314547752 582.1610487846733L1029.997314547752 582.1610487846733Q1018.1335377748236 582.1610487846733 1011.723091788701 575.7506027985505Q1005.3126458025785 569.340156812428 1005.3126458025785 557.6321894905512L1005.3126458025785 557.6321894905512L1005.3126458025785 478.6367978073942L1016.6867357293446 478.6367978073942L1016.6867357293446 557.0089516863449Q1016.6867357293446 564.3765128717844 1020.4484210475902 568.3830416131111Q1024.232364858843 572.3895703544376 1031.2660486491723 572.3895703544376L1031.2660486491723 572.3895703544376Q1038.8116777786704 572.3895703544376 1043.7753217193144 568.0491642180004L1043.7753217193144 568.0491642180004L1047.7818504606407 576.2402896447127Q1044.4208180165278 579.2674446937151 1039.6797590059582 580.7142467391941Q1034.9609584883956 582.1610487846733 1029.997314547752 582.1610487846733ZM1042.3285196738352 506.68249899668075L990.2436460365888 506.68249899668075L990.2436460365888 497.2226394685484L1042.3285196738352 497.2226394685484L1042.3285196738352 506.68249899668075ZM1102.7603281888455 582.1610487846733L1102.7603281888455 582.1610487846733Q1090.5626740208063 582.1610487846733 1080.8802295626006 576.6409425188453Q1071.1755266113869 571.0985777600104 1065.5663863735294 561.4161333018042Q1059.9572461356724 551.7114303505907 1059.9572461356724 539.2021572804487L1059.9572461356724 539.2021572804487Q1059.9572461356724 526.5593332522624 1065.5663863735294 516.9436642730784Q1071.1755266113869 507.32799529389445 1080.791195590571 501.87466450708877Q1090.4068645697548 496.42133372028303 1102.7603281888455 496.42133372028303L1102.7603281888455 496.42133372028303Q1115.2473427659802 496.42133372028303 1124.9520457171934 501.87466450708877Q1134.6344901753996 507.32799529389445 1140.1768549342346 516.9436642730784Q1145.6969612000626 526.5593332522624 1145.6969612000626 539.2021572804487L1145.6969612000626 539.2021572804487Q1145.6969612000626 551.7114303505907 1140.1768549342346 561.4161333018042Q1134.6344901753996 571.0985777600104 1124.863011745164 576.6409425188453Q1115.0915333149283 582.1610487846733 1102.7603281888455 582.1610487846733ZM1102.7603281888455 572.0556929593272L1102.7603281888455 572.0556929593272Q1111.8863103218673 572.0556929593272 1118.9422526052035 567.9823887389784Q1125.9981948885397 563.8868260256222 1130.0714991088885 556.4302308681532Q1134.1670618222447 548.9958942036915 1134.1670618222447 539.2021572804487L1134.1670618222447 539.2021572804487Q1134.1670618222447 529.2748693991616 1130.0714991088885 521.907308213722Q1125.9981948885397 514.5397470282824 1118.9422526052035 510.4441843149263Q1111.8863103218673 506.3486216015702 1102.916137639897 506.3486216015702L1102.916137639897 506.3486216015702Q1093.9459649579267 506.3486216015702 1086.8900226745905 510.4441843149263Q1079.8340803912538 514.5397470282824 1075.671742198876 521.907308213722Q1071.5094040064973 529.2748693991616 1071.5094040064973 539.2021572804487L1071.5094040064973 539.2021572804487Q1071.5094040064973 548.9958942036915 1075.671742198876 556.4302308681532Q1079.8340803912538 563.8868260256222 1086.8900226745905 567.9823887389784Q1093.9459649579267 572.0556929593272 1102.7603281888455 572.0556929593272ZM1217.0131727956768 581.359743036408L1171.3387451445533 581.359743036408L1171.3387451445533 469.17693827926183L1217.0131727956768 469.17693827926183Q1234.9757766526245 469.17693827926183 1248.5089404011055 476.2996560416203Q1262.042104149587 483.4446322969862 1269.5877332790856 496.10971481817984Q1277.1111039155767 508.7525388463662 1277.1111039155767 525.2683406578349L1277.1111039155767 525.2683406578349Q1277.1111039155767 541.7841424693036 1269.5877332790856 554.42696649749Q1262.042104149587 567.0920490186836 1248.5089404011055 574.2370252740495Q1234.9757766526245 581.359743036408 1217.0131727956768 581.359743036408L1217.0131727956768 581.359743036408ZM1183.2025219174816 479.43810355565955L1183.2025219174816 571.0985777600104L1216.367676498463 571.0985777600104Q1231.2808668134012 571.0985777600104 1242.2543038660347 565.2445940990718Q1253.2277409186681 559.4128689311408 1259.326568002688 549.0626696827137Q1265.4253950867073 538.7347289272939 1265.4253950867073 525.2683406578349L1265.4253950867073 525.2683406578349Q1265.4253950867073 511.64614293732427 1259.326568002688 501.3849776609266Q1253.2277409186681 491.1238123845289 1242.2543038660347 485.2920872165979Q1231.2808668134012 479.43810355565955 1216.367676498463 479.43810355565955L1216.367676498463 479.43810355565955L1183.2025219174816 479.43810355565955ZM1312.7024342343616 581.359743036408L1301.3060858145882 581.359743036408L1301.3060858145882 497.2226394685484L1312.7024342343616 497.2226394685484L1312.7024342343616 581.359743036408ZM1307.0932939965041 478.6367978073942L1307.0932939965041 478.6367978073942Q1303.5541936083323 478.6367978073942 1301.1502763635362 476.2328805625982Q1298.7463591187407 473.8289633178022 1298.7463591187407 470.46793087368934L1298.7463591187407 470.46793087368934Q1298.7463591187407 467.08463993656903 1301.1502763635362 464.7697566638025Q1303.5541936083323 462.454873391036 1307.0932939965041 462.454873391036L1307.0932939965041 462.454873391036Q1310.610135891669 462.454873391036 1313.0140531364646 464.68072269177304Q1315.4179703812606 466.9288304855175 1315.4179703812606 470.2898629296304L1315.4179703812606 470.2898629296304Q1315.4179703812606 473.8289633178022 1313.103087108494 476.2328805625982Q1310.7659453427204 478.6367978073942 1307.0932939965041 478.6367978073942ZM1367.013157172345 582.1610487846733L1367.013157172345 582.1610487846733Q1356.596182444896 582.1610487846733 1347.3143908608222 579.2006692146931Q1338.0103407837414 576.2402896447127 1332.7350779409949 571.744074057224L1332.7350779409949 571.744074057224L1337.85453133269 562.7739013752537Q1342.973984724385 566.6246206655288 1350.9870422070385 569.4291907844574Q1359.0000996896915 572.2337609033862 1367.8144629206104 572.2337609033862L1367.8144629206104 572.2337609033862Q1379.8340491445902 572.2337609033862 1385.1315704803442 568.4498170921331Q1390.4290918160982 564.6881317738876 1390.4290918160982 558.4334952388165L1390.4290918160982 558.4334952388165Q1390.4290918160982 553.8037286932836 1387.4464537531107 551.1549680254066Q1384.4860741831308 548.5062073575294 1379.6782396935387 547.1484392840798Q1374.8704052039466 545.7906712106303 1368.9496460639862 544.811297518306Q1363.0066284310183 543.854182318989 1357.1749032630873 542.5854482175689Q1351.320919602149 541.2944556231414 1346.5130851125568 538.801504406316Q1341.7052506229652 536.3308116824978 1338.7448710529848 531.9904055460606Q1335.7622329899973 527.6722579026309 1335.7622329899973 520.4605061682429L1335.7622329899973 520.4605061682429Q1335.7622329899973 513.560373335958 1339.612952280272 508.1293010421598Q1343.4636715705474 502.67597025535406 1350.920266728016 499.5375227413149Q1358.3768618854851 496.42133372028303 1369.1054555150376 496.42133372028303L1369.1054555150376 496.42133372028303Q1377.2743224487426 496.42133372028303 1385.4431893824476 498.58040754199794Q1393.6343148091596 500.73948136371285 1398.9095776519066 504.2785817518847L1398.9095776519066 504.2785817518847L1393.945933711263 513.4045638849066Q1388.3367934734056 509.55384459463147 1381.9263474872832 507.8844576190787Q1375.5159015011604 506.1928121505186 1369.1054555150376 506.1928121505186L1369.1054555150376 506.1928121505186Q1357.7313655882717 506.1928121505186 1352.3670687734952 510.1325654128231Q1346.9805134657117 514.0500601821202 1346.9805134657117 520.1488872661398L1346.9805134657117 520.1488872661398Q1346.9805134657117 524.9567217557317 1349.9631515286992 527.6722579026309Q1352.9235310986796 530.38779404953 1357.7981410672937 531.9236300670386Q1362.6950095289153 533.4372075915398 1368.5489931898537 534.3943227908567Q1374.4029768507917 535.373696483181 1380.234702018723 536.7314645566305Q1386.0886856796615 538.0892326300802 1390.9855541412826 540.4041159028466Q1395.8601641098967 542.7412576686206 1398.8428021728846 546.9926298330283Q1401.8031817428646 551.2217435044286 1401.8031817428646 558.1218763367133L1401.8031817428646 558.1218763367133Q1401.8031817428646 565.4894375221529 1397.7076190295088 570.8537343369292Q1393.6343148091596 576.2402896447127 1385.84384225658 579.2006692146931Q1378.075628197008 582.1610487846733 1367.013157172345 582.1610487846733ZM1466.0634510551427 582.1610487846733L1466.0634510551427 582.1610487846733Q1455.1567894815312 582.1610487846733 1446.3424262506123 577.1083708720003Q1437.528063019694 572.0556929593272 1432.3195756559694 562.5290579521727Q1427.1110882922449 553.0024229450182 1427.1110882922449 539.2021572804487L1427.1110882922449 539.2021572804487Q1427.1110882922449 525.4241501088865 1432.252800176947 515.8975151017321Q1437.3722535686425 506.3486216015702 1446.1866167995609 501.3849776609266Q1455.0009800304797 496.42133372028303 1466.0634510551427 496.42133372028303L1466.0634510551427 496.42133372028303Q1478.0830372791224 496.42133372028303 1487.6096722862771 501.7856305350593Q1497.1585657864389 507.1499273498355 1502.6118965732444 516.8546303010489Q1508.0429688670429 526.5593332522624 1508.0429688670429 539.2021572804487L1508.0429688670429 539.2021572804487Q1508.0429688670429 552.0230492526939 1502.6118965732444 561.6387182318779Q1497.1585657864389 571.2543872110618 1487.6096722862771 576.7077179978676Q1478.0830372791224 582.1610487846733 1466.0634510551427 582.1610487846733ZM1434.0112211245296 612.4548577677042L1422.6371311977632 612.4548577677042L1422.6371311977632 497.2226394685484L1433.5215342783672 497.2226394685484L1433.5215342783672 522.5528045109356L1432.4086096279989 539.3802252245076L1434.0112211245296 556.3634553891311L1434.0112211245296 612.4548577677042ZM1465.2621453068773 572.0556929593272L1465.2621453068773 572.0556929593272Q1474.2323179888476 572.0556929593272 1481.2882602721838 567.9823887389784Q1488.34420255552 563.8868260256222 1492.5065407478987 556.4302308681532Q1496.6688789402765 548.9958942036915 1496.6688789402765 539.2021572804487L1496.6688789402765 539.2021572804487Q1496.6688789402765 529.4306788502131 1492.5065407478987 522.0631176647736Q1488.34420255552 514.6955564793341 1481.2882602721838 510.5332182869558Q1474.2323179888476 506.3486216015702 1465.2621453068773 506.3486216015702L1465.2621453068773 506.3486216015702Q1456.291972624907 506.3486216015702 1449.1469963695413 510.5332182869558Q1442.0242786071826 514.6955564793341 1437.9287158938268 522.0631176647736Q1433.8554116734776 529.4306788502131 1433.8554116734776 539.2021572804487L1433.8554116734776 539.2021572804487Q1433.8554116734776 548.9958942036915 1437.9287158938268 556.4302308681532Q1442.0242786071826 563.8868260256222 1449.1469963695413 567.9823887389784Q1456.291972624907 572.0556929593272 1465.2621453068773 572.0556929593272ZM1594.9178670748088 581.359743036408L1584.0112055011973 581.359743036408L1584.0112055011973 562.7739013752537L1583.5437771480429 559.724487833244L1583.5437771480429 528.6293731019477Q1583.5437771480429 517.9007794723952 1577.5339840360525 512.1358297834864Q1571.5241909240626 506.3486216015702 1559.6604141511343 506.3486216015702L1559.6604141511343 506.3486216015702Q1551.4915472174298 506.3486216015702 1544.1017275389827 509.0864162414767Q1536.734166353543 511.80195238837587 1531.614712961848 516.2981679758647L1531.614712961848 516.2981679758647L1526.4730010771455 507.79542364704923Q1532.8834470632682 502.34209286024355 1541.8758782382456 499.3817132902633Q1550.846050920216 496.42133372028303 1560.773338801503 496.42133372028303L1560.773338801503 496.42133372028303Q1577.13333116192 496.42133372028303 1586.014469871861 504.5234251749658Q1594.9178670748088 512.6032581366412 1594.9178670748088 529.1190599481099L1594.9178670748088 529.1190599481099L1594.9178670748088 581.359743036408ZM1555.0083891125942 582.1610487846733L1555.0083891125942 582.1610487846733Q1545.548529584462 582.1610487846733 1538.5816212731547 579.0448597636414Q1531.614712961848 575.9064122496022 1527.9198031226247 570.3863059837745Q1524.2471517764084 564.8439412249393 1524.2471517764084 557.6321894905512L1524.2471517764084 557.6321894905512Q1524.2471517764084 551.0659340533771 1527.3633407974403 545.7016372386008Q1530.4795298184722 540.3373404238246 1537.624506073838 537.0430834587337Q1544.7472238361966 533.7710849866503 1556.7668100601763 533.7710849866503L1556.7668100601763 533.7710849866503L1585.76962644878 533.7710849866503L1585.76962644878 542.2515708224585L1557.1006874552868 542.2515708224585Q1544.903033287248 542.2515708224585 1540.1842327696854 546.5919769588957Q1535.4654322521233 550.9101246023254 1535.4654322521233 557.320570588448L1535.4654322521233 557.320570588448Q1535.4654322521233 564.5323223228361 1541.0745724899803 568.8504699662658Q1546.6837127278377 573.190876102703 1556.7668100601763 573.190876102703L1556.7668100601763 573.190876102703Q1566.38247903936 573.190876102703 1573.3493873506673 568.7836944872438Q1580.3385541549815 564.3765128717844 1583.5437771480429 556.0295779940207L1583.5437771480429 556.0295779940207L1586.1035038438904 563.8868260256222Q1582.898280850829 572.2337609033862 1574.951998847198 577.1974048440297Q1567.027975336574 582.1610487846733 1555.0083891125942 582.1610487846733ZM1652.456071498861 582.1610487846733L1652.456071498861 582.1610487846733Q1640.5922947259328 582.1610487846733 1634.18184873981 575.7506027985505Q1627.7714027536872 569.340156812428 1627.7714027536872 557.6321894905512L1627.7714027536872 557.6321894905512L1627.7714027536872 478.6367978073942L1639.1454926804536 478.6367978073942L1639.1454926804536 557.0089516863449Q1639.1454926804536 564.3765128717844 1642.9071779986994 568.3830416131111Q1646.6688633169447 572.3895703544376 1653.7248056002813 572.3895703544376L1653.7248056002813 572.3895703544376Q1661.2704347297795 572.3895703544376 1666.234078670423 568.0491642180004L1666.234078670423 568.0491642180004L1670.2406074117498 576.2402896447127Q1666.879574967637 579.2674446937151 1662.1385159570673 580.7142467391941Q1657.4197154395047 582.1610487846733 1652.456071498861 582.1610487846733ZM1664.7872766249443 506.68249899668075L1612.702402987698 506.68249899668075L1612.702402987698 497.2226394685484L1664.7872766249443 497.2226394685484L1664.7872766249443 506.68249899668075ZM1725.8423229441605 582.1610487846733L1725.8423229441605 582.1610487846733Q1713.3553083670263 582.1610487846733 1703.4947959647611 576.6409425188453Q1693.634283562496 571.0985777600104 1688.025143324639 561.4161333018042Q1682.4160030867815 551.7114303505907 1682.4160030867815 539.2021572804487L1682.4160030867815 539.2021572804487Q1682.4160030867815 526.5593332522624 1688.025143324639 516.9436642730784Q1693.634283562496 507.32799529389445 1703.4947959647611 501.87466450708877Q1713.3553083670263 496.42133372028303 1725.8423229441605 496.42133372028303L1725.8423229441605 496.42133372028303Q1736.5931750667205 496.42133372028303 1745.2294703535804 500.58367191266126Q1753.8880241334473 504.7460101050395 1758.8516680740909 513.0929449828034L1758.8516680740909 513.0929449828034L1750.371182238283 518.8578946717123Q1746.0307761018457 512.4474486855896 1739.620330115723 509.3980351435799Q1733.2098841296001 506.3486216015702 1725.686513493109 506.3486216015702L1725.686513493109 506.3486216015702Q1716.7163408111392 506.3486216015702 1709.504589076751 510.4441843149263Q1702.2928373423629 514.5397470282824 1698.1304991499846 521.907308213722Q1693.945902464599 529.2748693991616 1693.945902464599 539.2021572804487L1693.945902464599 539.2021572804487Q1693.945902464599 549.1517036547432 1698.1304991499846 556.5192648401828Q1702.2928373423629 563.8868260256222 1709.504589076751 567.9823887389784Q1716.7163408111392 572.0556929593272 1725.686513493109 572.0556929593272L1725.686513493109 572.0556929593272Q1733.2098841296001 572.0556929593272 1739.620330115723 569.0285379103248Q1746.0307761018457 565.9791243683151 1750.371182238283 559.724487833244L1750.371182238283 559.724487833244L1758.8516680740909 565.4894375221529Q1753.8880241334473 573.6583044558579 1745.2294703535804 577.9096766202656Q1736.5931750667205 582.1610487846733 1725.8423229441605 582.1610487846733ZM1792.5065095012346 581.359743036408L1781.1324195744687 581.359743036408L1781.1324195744687 462.454873391036L1792.5065095012346 462.454873391036L1792.5065095012346 520.3046967171913L1790.280660200498 515.9642905807541Q1794.2871889418243 506.83830844773235 1803.1015521727431 501.6298210840077Q1811.9159154036615 496.42133372028303 1824.0913110786933 496.42133372028303L1824.0913110786933 496.42133372028303Q1834.3524763550909 496.42133372028303 1842.120690414663 500.3388284895802Q1849.8889044742355 504.2785817518847 1854.2960860896947 512.291639234538Q1858.7032677051538 520.3046967171913 1858.7032677051538 532.4800923922228L1858.7032677051538 532.4800923922228L1858.7032677051538 581.359743036408L1847.3291777783875 581.359743036408L1847.3291777783875 533.5930170425913Q1847.3291777783875 520.3046967171913 1840.6738883691842 513.493597856936Q1834.0185989599804 506.68249899668075 1821.9990127360002 506.68249899668075L1821.9990127360002 506.68249899668075Q1813.0288400540298 506.68249899668075 1806.3735506448265 510.2883748638747Q1799.7182612356228 513.8942507310687 1796.1123853684285 520.705349591324Q1792.5065095012346 527.5164484515792 1792.5065095012346 537.1321174307632L1792.5065095012346 537.1321174307632L1792.5065095012346 581.359743036408ZM1886.2592820482782 581.359743036408L1873.928076922195 581.359743036408L1925.211644811176 469.17693827926183L1936.9196121330529 469.17693827926183L1988.2031800220338 581.359743036408L1975.6939069518917 581.359743036408L1928.572677255289 476.0770711115467L1933.380511744881 476.0770711115467L1886.2592820482782 581.359743036408ZM1966.389856874811 551.3998114484875L1894.1165300798798 551.3998114484875L1897.6556304680516 541.7841424693036L1962.873014979647 541.7841424693036L1966.389856874811 551.3998114484875ZM2018.6527984561162 581.359743036408L2006.789021683188 581.359743036408L2006.789021683188 469.17693827926183L2018.6527984561162 469.17693827926183L2018.6527984561162 581.359743036408ZM2053.910251379791 582.1610487846733L2053.910251379791 582.1610487846733Q2050.371150991619 582.1610487846733 2047.9004582678008 579.6013220888258Q2045.4075070509753 577.041595392978 2045.4075070509753 573.3466855537547L2045.4075070509753 573.3466855537547Q2045.4075070509753 569.4959662634797 2047.9004582678008 567.0920490186836Q2050.371150991619 564.6881317738876 2053.910251379791 564.6881317738876L2053.910251379791 564.6881317738876Q2057.4270932749555 564.6881317738876 2059.920044491781 567.0920490186836Q2062.390737215599 569.4959662634797 2062.390737215599 573.3466855537547L2062.390737215599 573.3466855537547Q2062.390737215599 577.041595392978 2059.920044491781 579.6013220888258Q2057.4270932749555 582.1610487846733 2053.910251379791 582.1610487846733ZM2137.8692870035916 582.3168582357248L2137.8692870035916 582.3168582357248Q2125.226462975405 582.3168582357248 2114.4756108528454 578.0654860713171Q2103.747017223293 573.8363723999169 2095.8897691916914 566.1349338193667Q2088.0325211600893 558.4334952388165 2083.62533954463 548.0165205113673Q2079.218157929171 537.5995457839181 2079.218157929171 525.2683406578349L2079.218157929171 525.2683406578349Q2079.218157929171 512.9371355317518 2083.62533954463 502.52016080430246Q2088.0325211600893 492.1031860768532 2095.978803163721 484.40174749630313Q2103.9028266743444 476.700308915753 2114.631420303897 472.47119524435266Q2125.382272426457 468.21982307994494 2138.0473549476505 468.21982307994494L2138.0473549476505 468.21982307994494Q2150.222750622682 468.21982307994494 2160.951344252235 472.2931273002937Q2171.7021963747943 476.3886900136498 2179.069757560234 484.5575569473547L2179.069757560234 484.5575569473547L2171.524128430736 492.1031860768532Q2164.646254091458 485.0472437935168 2156.299319213694 481.9087962794776Q2147.9746428289377 478.7926072584458 2138.3589738497535 478.7926072584458L2138.3589738497535 478.7926072584458Q2128.2536180244074 478.7926072584458 2119.617322737548 482.24267367458816Q2110.958768957681 485.6927400907306 2104.5483229715583 492.0141521048237Q2098.1378769854355 498.33556411891686 2094.5320011182416 506.7492744757028Q2090.926125251048 515.1629848324887 2090.926125251048 525.2683406578349L2090.926125251048 525.2683406578349Q2090.926125251048 535.373696483181 2094.5320011182416 543.7874068399669Q2098.1378769854355 552.2011171967529 2104.5483229715583 558.522529210846Q2110.958768957681 564.8439412249393 2119.617322737548 568.2940076410816Q2128.2536180244074 571.744074057224 2138.3589738497535 571.744074057224L2138.3589738497535 571.744074057224Q2147.9746428289377 571.744074057224 2156.299319213694 568.5388510641626Q2164.646254091458 565.3336280711013 2171.524128430736 558.277685787765L2171.524128430736 558.277685787765L2179.069757560234 565.8233149172635Q2171.7021963747943 573.9921818509683 2160.951344252235 578.1545200433466Q2150.222750622682 582.3168582357248 2137.8692870035916 582.3168582357248ZM2234.6714730926446 582.1610487846733L2234.6714730926446 582.1610487846733Q2222.496077417613 582.1610487846733 2212.7913744663997 576.6409425188453Q2203.1089300081935 571.0985777600104 2197.4997897703365 561.4161333018042Q2191.890649532479 551.7114303505907 2191.890649532479 539.2021572804487L2191.890649532479 539.2021572804487Q2191.890649532479 526.5593332522624 2197.4997897703365 516.9436642730784Q2203.1089300081935 507.32799529389445 2212.7245989873777 501.87466450708877Q2222.3402679665614 496.42133372028303 2234.6714730926446 496.42133372028303L2234.6714730926446 496.42133372028303Q2247.180746162787 496.42133372028303 2256.8631906209926 501.87466450708877Q2266.5678935722062 507.32799529389445 2272.087999838034 516.9436642730784Q2277.630364596869 526.5593332522624 2277.630364596869 539.2021572804487L2277.630364596869 539.2021572804487Q2277.630364596869 551.7114303505907 2272.087999838034 561.4161333018042Q2266.5678935722062 571.0985777600104 2256.796415141971 576.6409425188453Q2247.0249367117353 582.1610487846733 2234.6714730926446 582.1610487846733ZM2234.6714730926446 572.0556929593272L2234.6714730926446 572.0556929593272Q2243.819713718674 572.0556929593272 2250.853397509003 567.9823887389784Q2257.9093397923393 563.8868260256222 2262.0049025056956 556.4302308681532Q2266.0782067260443 548.9958942036915 2266.0782067260443 539.2021572804487L2266.0782067260443 539.2021572804487Q2266.0782067260443 529.2748693991616 2262.0049025056956 521.907308213722Q2257.9093397923393 514.5397470282824 2250.853397509003 510.4441843149263Q2243.819713718674 506.3486216015702 2234.8272825436966 506.3486216015702L2234.8272825436966 506.3486216015702Q2225.857109861726 506.3486216015702 2218.8011675783896 510.4441843149263Q2211.7674837880604 514.5397470282824 2207.582887102675 521.907308213722Q2203.420548910297 529.2748693991616 2203.420548910297 539.2021572804487L2203.420548910297 539.2021572804487Q2203.420548910297 548.9958942036915 2207.582887102675 556.4302308681532Q2211.7674837880604 563.8868260256222 2218.8011675783896 567.9823887389784Q2225.857109861726 572.0556929593272 2234.6714730926446 572.0556929593272ZM2312.24232122333 581.359743036408L2300.868231296564 581.359743036408L2300.868231296564 497.2226394685484L2311.752634377168 497.2226394685484L2311.752634377168 519.9708193220808L2309.9942134295857 515.9642905807541Q2313.8449327198605 506.83830844773235 2322.4144525276984 501.6298210840077Q2330.983972335536 496.42133372028303 2342.6919396574126 496.42133372028303L2342.6919396574126 496.42133372028303Q2355.0231447834954 496.42133372028303 2363.6816985633627 502.5869362833246Q2372.3402523432296 508.7525388463662 2374.899979039077 521.1060024654566L2374.899979039077 521.1060024654566L2370.426021944596 519.3475815178745Q2374.0986732908123 509.0864162414767 2383.4694988469146 502.7427457343762Q2392.862582896025 496.42133372028303 2405.9950937703734 496.42133372028303L2405.9950937703734 496.42133372028303Q2416.256259046771 496.42133372028303 2423.8686636552916 500.3388284895802Q2431.4810682638126 504.2785817518847 2435.7324404282203 512.291639234538Q2439.9615540996206 520.3046967171913 2439.9615540996206 532.4800923922228L2439.9615540996206 532.4800923922228L2439.9615540996206 581.359743036408L2428.587464172854 581.359743036408L2428.587464172854 533.5930170425913Q2428.587464172854 520.3046967171913 2422.2660521587613 513.493597856936Q2415.922381651661 506.68249899668075 2404.3924822738427 506.68249899668075L2404.3924822738427 506.68249899668075Q2395.733928493976 506.68249899668075 2389.4125164798825 510.2883748638747Q2383.068845972782 513.8942507310687 2379.6410380496472 520.705349591324Q2376.190971633505 527.5164484515792 2376.190971633505 537.1321174307632L2376.190971633505 537.1321174307632L2376.190971633505 581.359743036408L2364.8168817067385 581.359743036408L2364.8168817067385 533.5930170425913Q2364.8168817067385 520.3046967171913 2358.4064357206157 513.493597856936Q2351.9959897344934 506.68249899668075 2340.443831863668 506.68249899668075L2340.443831863668 506.68249899668075Q2331.96334602786 506.68249899668075 2325.5529000417373 510.2883748638747Q2319.142454055615 513.8942507310687 2315.6923876394726 520.705349591324Q2312.24232122333 527.5164484515792 2312.24232122333 537.1321174307632L2312.24232122333 537.1321174307632L2312.24232122333 581.359743036408Z " fill="#141a46" transform="matrix(0.3586121848529077,0,0,0.3586121848529077,0,107.26213506064923)"/></g></svg>